<?xml version="1.0" standalone="no"?>
<!DOCTYPE svg PUBLIC "-//W3C//DTD SVG 20010904//EN"
 "http://www.w3.org/TR/2001/REC-SVG-20010904/DTD/svg10.dtd">
<svg version="1.0" xmlns="http://www.w3.org/2000/svg"
 width="700.000000pt" height="700.000000pt" viewBox="0 0 700.000000 700.000000"
 preserveAspectRatio="xMidYMid meet">
<metadata>
Created by potrace 1.11, written by Peter Selinger 2001-2013
</metadata>
<g transform="translate(0.000000,700.000000) scale(0.100000,-0.100000)"
fill="#000000" stroke="none">
<path d="M5560 6978 c-14 -7 -38 -24 -54 -38 -90 -80 -76 -229 29 -302 31 -22
55 -29 110 -33 221 -16 313 -39 455 -110 184 -93 324 -240 414 -437 52 -113
78 -233 91 -417 5 -78 35 -129 98 -166 104 -60 221 -24 269 83 28 62 22 214
-17 403 -2 14 -19 68 -36 120 -143 434 -502 766 -942 869 -129 30 -135 31
-267 36 -88 3 -132 0 -150 -8z"/>
<path d="M2610 6684 c-30 -8 -61 -21 -70 -29 -9 -8 -21 -15 -27 -15 -22 0
-121 -90 -151 -137 -17 -26 -36 -70 -43 -98 -7 -27 -25 -77 -40 -110 -16 -33
-33 -80 -38 -104 -15 -67 -7 -178 18 -245 25 -72 24 -71 -74 74 -92 135 -132
181 -200 225 -104 67 -188 79 -295 44 -138 -45 -247 -146 -279 -259 -7 -25
-26 -65 -41 -90 -50 -78 -70 -134 -73 -206 -5 -102 20 -173 107 -304 69 -103
71 -108 36 -80 -71 56 -147 84 -230 84 -66 1 -84 -4 -150 -35 -143 -68 -221
-163 -246 -298 -3 -13 -13 -40 -23 -60 -56 -109 -65 -272 -21 -386 13 -33 87
-154 165 -270 174 -259 165 -244 124 -213 -150 112 -335 94 -488 -48 -85 -78
-115 -144 -115 -254 0 -102 20 -164 88 -270 26 -39 51 -77 56 -83 6 -7 92
-131 192 -277 99 -146 210 -308 246 -360 36 -52 99 -144 140 -205 42 -60 99
-144 127 -185 52 -75 82 -119 302 -440 66 -96 144 -210 174 -254 211 -307 278
-405 387 -566 58 -85 139 -199 179 -253 322 -428 786 -733 1314 -860 112 -28
134 -32 279 -52 96 -13 463 -13 545 0 32 5 163 28 281 51 12 2 40 10 63 19 23
8 42 14 44 13 7 -2 119 36 199 68 686 275 1212 871 1392 1579 59 232 71 329
71 585 0 162 -7 281 -20 355 -26 142 -30 160 -55 257 -30 117 -95 286 -162
428 -211 438 -278 616 -607 1595 -82 242 -159 472 -173 511 -85 242 -273 345
-497 273 -106 -34 -192 -103 -230 -183 -48 -103 -47 -180 6 -439 23 -116 44
-222 47 -236 4 -23 19 -99 30 -156 2 -11 41 -204 86 -430 46 -225 83 -420 84
-432 1 -16 -19 -36 -73 -77 l-74 -55 -56 79 c-84 119 -259 373 -541 785 -139
204 -283 413 -319 465 -35 52 -99 145 -140 205 -41 61 -79 112 -83 113 -4 2
-8 7 -8 12 0 6 -276 415 -307 455 -4 6 -42 60 -83 120 -41 61 -102 151 -137
200 -34 50 -96 141 -138 202 -83 121 -116 158 -182 204 -85 59 -197 80 -293
53z"/>
<path d="M4580 6588 c-90 -47 -130 -155 -90 -246 31 -70 91 -113 165 -118 219
-15 227 -16 341 -44 692 -173 1218 -813 1225 -1490 1 -67 35 -146 77 -177 89
-66 212 -45 277 46 30 42 30 45 30 169 0 70 -4 152 -8 182 -4 30 -9 69 -12 85
-8 65 -17 104 -46 215 -65 244 -167 456 -317 658 -53 72 -177 209 -231 256
-106 92 -171 140 -272 203 -130 81 -390 192 -511 217 -246 52 -262 54 -443 62
-133 5 -142 4 -185 -18z"/>
<path d="M526 2520 c-49 -15 -95 -53 -121 -101 -24 -45 -25 -51 -20 -194 2
-81 7 -155 9 -164 3 -9 7 -36 10 -61 3 -25 10 -70 16 -100 6 -30 14 -66 16
-80 26 -129 108 -354 175 -479 317 -588 885 -924 1620 -957 114 -5 132 -4 174
15 101 45 149 158 107 253 -36 83 -97 115 -227 119 -164 6 -362 58 -540 144
-552 265 -958 842 -974 1381 -3 92 -21 144 -67 183 -50 45 -115 59 -178 41z"/>
<path d="M109 1532 c-32 -15 -60 -39 -77 -65 -26 -39 -27 -46 -26 -166 2 -145
26 -278 75 -416 146 -414 475 -719 901 -834 134 -37 220 -49 342 -47 95 1 106
3 143 29 116 81 115 254 -3 323 -42 24 -61 28 -199 39 -133 10 -218 30 -333
79 -312 131 -513 428 -538 791 -12 171 -16 187 -69 238 -58 56 -140 67 -216
29z"/>
</g>
</svg>
